# xmcd
#
# Track frame offsets:
# 150
# 13954
# 33471
# 49174
# 62075
# 81637
# 100162
# 115344
# 132319
# 147363
# 164186
# 178851
# 197858
# 214853
#
# Disc length: 3048 seconds
#
#
# Revision: 4
# Processed by: cddbd v1.5.2PL0 Copyright (c) Steve Scherf et al.
# Submitted via: FreeRIP 2.96 
#
DISCID=df0be60e
DTITLE=Del Tha Funkee Homosapien - Eleventh Hour
DYEAR=2008
DGENRE=Hip-Hop
TTITLE0=Raw Sewage
TTITLE1=Bubble Pop
TTITLE2=Back In The Chamber
TTITLE3=Slam Dunk
TTITLE4=Situations
TTITLE5=Naked Fonk
TTITLE6=Hold Your Hand
TTITLE7=Foot Down
TTITLE8=I'll Tell You
TTITLE9=Workin' It
TTITLE10=Last Hurrah
TTITLE11=Str8t Up And Down
TTITLE12=I Got You
TTITLE13=Funkyhomosapien
EXTD=
EXTT0=
EXTT1=
EXTT2=
EXTT3=
EXTT4=
EXTT5=
EXTT6=
EXTT7=
EXTT8=
EXTT9=
EXTT10=
EXTT11=
EXTT12=
EXTT13=
PLAYORDER=
